<svg xmlns="http://www.w3.org/2000/svg" version="1.1" xmlns:xlink="http://www.w3.org/1999/xlink" xmlns:svgjs="http://svgjs.dev/svgjs" width="1500" height="1500" viewBox="0 0 1500 1500"><rect width="1500" height="1500" fill="#ffffff"></rect><g transform="matrix(0.6666666666666666,0,0,0.6666666666666666,249.78425655976673,249.78425655976673)"><svg viewBox="0 0 343 343" data-background-color="#000000" preserveAspectRatio="xMidYMid meet" height="1500" width="1500" xmlns="http://www.w3.org/2000/svg" xmlns:xlink="http://www.w3.org/1999/xlink"><g id="tight-bounds" transform="matrix(1,0,0,1,0.07400000000001228,0.07400000000001228)"><svg viewBox="0 0 342.8515585177538 342.8515585177538" height="342.8515585177538" width="342.8515585177538"><g><svg></svg></g><g><svg viewBox="0 0 342.8515585177538 342.8515585177538" height="342.8515585177538" width="342.8515585177538"><g><path d="M0 171.426c0-94.676 76.75-171.426 171.426-171.426 94.676 0 171.426 76.75 171.426 171.426 0 94.676-76.75 171.426-171.426 171.426-94.676 0-171.426-76.75-171.426-171.426zM171.426 340.062c93.135 0 168.637-75.501 168.636-168.636 0-93.135-75.501-168.637-168.636-168.637-93.135 0-168.637 75.501-168.637 168.637 0 93.135 75.501 168.637 168.637 168.636z" data-fill-palette-color="tertiary" fill="#000000" stroke="transparent"></path><ellipse rx="164.56874808852183" ry="164.56874808852183" cx="171.4257792588769" cy="171.4257792588769" fill="#000000" stroke="transparent" stroke-width="0" fill-opacity="1" data-fill-palette-color="tertiary"></ellipse></g><g transform="matrix(1,0,0,1,64.84655864529836,102.70937027059871)"><svg viewBox="0 0 213.15844122715708 137.43281797655638" height="137.43281797655638" width="213.15844122715708"><g><svg viewBox="0 0 213.15844122715708 137.43281797655638" height="137.43281797655638" width="213.15844122715708"><g><svg viewBox="0 0 213.15844122715714 137.4328179765564" height="137.43281797655638" width="213.15844122715708"><g transform="matrix(1,0,0,1,0,82.80168512276379)"><svg viewBox="0 0 213.15844122715714 54.63113285379262" height="54.63113285379262" width="213.15844122715714"><g id="textblocktransform"><svg viewBox="0 0 213.15844122715714 54.63113285379262" height="54.63113285379262" width="213.15844122715714" id="textblock"><g><svg viewBox="0 0 213.15844122715714 30.928427789450716" height="30.928427789450716" width="213.15844122715714"><g transform="matrix(1,0,0,1,0,0)"><svg width="213.15844122715714" viewBox="2.76 -38.99 367.62 53.35" height="30.928427789450716" data-palette-color="#000000"><path d="M19.31-5.69L19.31-5.69Q19.31-3.93 18.6-2.66 17.9-1.39 16.71-0.57 15.53 0.24 13.95 0.62 12.38 1 10.64 1L10.64 1Q6.45 1 2.76-0.76L2.76-0.76Q3.22-2.37 3.69-3.75 4.15-5.13 4.64-6.3L4.64-6.3 5.35-6.05Q5.13-4.98 5.13-3.99 5.13-3 5.2-2.2L5.2-2.2Q5.96-1.81 6.62-1.53 7.28-1.25 7.93-1.06 8.59-0.88 9.35-0.79 10.11-0.71 11.11-0.71L11.11-0.71Q12.6-0.71 13.57-0.9 14.55-1.1 15.1-1.57 15.65-2.05 15.87-2.84 16.09-3.64 16.09-4.81L16.09-4.81Q16.09-5.71 15.78-6.51 15.48-7.3 14.73-8.08 13.99-8.86 12.76-9.7 11.52-10.55 9.69-11.55L9.69-11.55Q6.74-13.31 5.22-15.05 3.71-16.8 3.71-18.8L3.71-18.8Q3.71-20.39 4.37-21.62 5.03-22.85 6.16-23.69 7.3-24.54 8.81-24.96 10.33-25.39 12.01-25.39L12.01-25.39Q12.87-25.39 13.81-25.27 14.75-25.15 15.63-24.91 16.5-24.68 17.27-24.35 18.04-24.02 18.6-23.61L18.6-23.61Q17.82-20.41 16.7-17.99L16.7-17.99 15.99-18.26Q16.04-18.97 16.06-20.01 16.09-21.04 16.09-22.46L16.09-22.46Q14.5-23.71 11.69-23.71L11.69-23.71Q10.3-23.71 9.34-23.54 8.37-23.36 7.79-22.95 7.2-22.53 6.95-21.81 6.69-21.09 6.69-20L6.69-20Q6.69-19.19 6.91-18.49 7.13-17.8 7.69-17.13 8.25-16.46 9.22-15.76 10.18-15.06 11.69-14.26L11.69-14.26Q14.06-12.96 15.54-11.99 17.02-11.01 17.86-10.07 18.7-9.13 19.01-8.11 19.31-7.08 19.31-5.69ZM43.04-17.65L43.04-2.76Q43.04-2.34 43.22-1.99 43.41-1.64 43.66-1.4 43.92-1.17 44.41-0.95 44.89-0.73 45.26-0.61 45.63-0.49 46.29-0.29L46.29-0.29 46.09 0.29Q44.53 0 42.99 0L42.99 0Q41.06 0 39.18 0.39L39.18 0.39 39.04 0.15Q39.55-0.56 39.55-2.44L39.55-2.44 39.55-4.05Q38.33-1.78 35.75-0.39 33.18 1 30.54 1L30.54 1Q27.73 1 26.01-0.45 24.29-1.9 24.29-4.76L24.29-4.76Q24.29-6.62 25.06-8.07 25.83-9.52 27.11-10.53 28.39-11.55 30.41-12.33 32.42-13.11 34.56-13.6 36.69-14.09 39.55-14.5L39.55-14.5 39.55-16.75Q39.55-23.46 34.25-23.46L34.25-23.46Q32.54-23.46 30.06-22.62 27.59-21.78 25.9-20.41L25.9-20.41 24.9-21.56Q27.02-23.24 29.94-24.34 32.86-25.44 35.4-25.44L35.4-25.44Q36.52-25.44 37.53-25.23 38.55-25.02 39.58-24.48 40.62-23.93 41.37-23.08 42.11-22.24 42.58-20.84 43.04-19.43 43.04-17.65L43.04-17.65ZM31.69-0.85L31.69-0.85Q33.81-0.85 36.13-2.26 38.45-3.66 39.55-5.76L39.55-5.76 39.55-13.21Q33.3-12.3 30.62-10.44 27.95-8.57 27.95-5L27.95-5Q27.95-2.83 28.88-1.84 29.81-0.85 31.69-0.85ZM73.38 6.2L73.38 6.2Q73.38 8.64 71.56 10.53 69.75 12.43 66.87 13.39 63.98 14.36 60.64 14.36L60.64 14.36Q58.08 14.36 56.03 13.67 53.97 12.99 52.63 11.4 51.29 9.81 51.29 7.54L51.29 7.54Q51.29 5.18 53.36 3.15 55.44 1.12 58.83-0.29L58.83-0.29Q55.76-0.98 54.41-1.79 53.07-2.61 53.07-4.35L53.07-4.35Q53.07-5.88 54.02-6.82 54.98-7.76 57.27-8.35L57.27-8.35Q54.58-9.18 53.08-11.21 51.58-13.23 51.58-16.46L51.58-16.46Q51.58-18.8 52.96-20.87 54.34-22.95 56.6-24.17 58.86-25.39 61.32-25.39L61.32-25.39Q64.16-25.39 66.33-24.51L66.33-24.51 74.34-25.39 74.53-24.56 72.77-22.75 68.43-23.14Q70.94-20.9 70.94-16.65L70.94-16.65Q70.94-14.5 69.65-12.48 68.35-10.45 66.08-9.16 63.81-7.86 61.23-7.86L61.23-7.86Q57.71-7.25 56.72-6.79 55.73-6.32 55.73-5.3L55.73-5.3Q55.73-4.69 57.08-4.11 58.42-3.54 62.37-2.54L62.37-2.54Q64.18-2.1 65.42-1.75 66.67-1.39 67.91-0.94 69.16-0.49 69.95-0.02 70.75 0.44 71.47 1.06 72.19 1.68 72.57 2.43 72.94 3.17 73.16 4.1 73.38 5.03 73.38 6.2ZM62.13 0.34L62.13 0.34 61.13 0.1Q58.05 1.25 56.27 3.2 54.49 5.15 54.49 7.15L54.49 7.15Q54.49 8.57 55.26 9.66 56.03 10.74 57.32 11.35 58.61 11.96 60.08 12.26 61.54 12.55 63.13 12.55L63.13 12.55Q70.28 12.55 70.28 6.96L70.28 6.96Q70.28 4.25 68.24 2.73 66.21 1.22 62.13 0.34ZM60.32-23.66L60.32-23.66Q57.25-23.66 56.06-22.08 54.88-20.51 54.88-16.85L54.88-16.85Q54.88-15.14 55.43-13.81 55.98-12.48 56.81-11.71 57.64-10.94 58.75-10.44 59.86-9.94 60.82-9.77 61.79-9.59 62.74-9.59L62.74-9.59Q65.23-9.59 66.43-11.38 67.62-13.16 67.62-16.26L67.62-16.26Q67.62-18.04 67.07-19.42 66.52-20.8 65.73-21.57 64.94-22.34 63.89-22.84 62.84-23.34 61.98-23.5 61.13-23.66 60.32-23.66ZM78.26-11.89L78.26-11.89Q78.26-14.48 79.12-16.91 79.97-19.34 81.56-21.23 83.15-23.12 85.41-24.26 87.66-25.39 90.47-25.39L90.47-25.39Q92.23-25.39 93.79-24.79 95.35-24.19 96.51-22.94 97.67-21.68 98.34-19.71 99.02-17.75 99.02-15.04L99.02-15.04 98.06-14.16 82.12-14.16Q82.07-13.75 82.07-13.35 82.07-12.96 82.07-12.57L82.07-12.57Q82.07-9.91 82.7-7.74 83.32-5.57 84.38-4.02 85.44-2.47 86.88-1.61 88.32-0.76 89.93-0.76L89.93-0.76Q90.96-0.76 92.02-0.92 93.08-1.07 94.1-1.42 95.11-1.76 96.06-2.29 97.01-2.83 97.82-3.59L97.82-3.59 98.82-2.54Q96.89-0.63 94.62 0.18 92.35 1 89.37 1L89.37 1Q87.03 1 84.99 0.1 82.95-0.81 81.46-2.49 79.97-4.17 79.12-6.56 78.26-8.94 78.26-11.89ZM89.93-23.71L89.93-23.71Q86.15-23.71 84.39-21.74 82.63-19.78 82.27-16.09L82.27-16.09 95.87-16.09Q95.67-20.09 94.07-21.9 92.47-23.71 89.93-23.71ZM113.03-15.6L113.03-15.6 101.53-15.6 101.53-16.46Q103.75-17.46 105.53-17.46L105.53-17.46 117.03-17.46 117.03-16.6Q114.91-15.6 113.03-15.6ZM158.48-24.61L147.57 1.25 145.89 0.76 139.98-18.65 132.29 1.25 130.58 0.76 123.33-19.8Q122.94-21.07 122.4-21.8 121.86-22.53 121.26-22.75 120.67-22.97 119.95-23.01 119.23-23.05 118.03-22.85L118.03-22.85 117.79-23.34Q121.89-25.39 125.04-25.39L125.04-25.39 131.19-8.3Q131.7-6.57 132.29-3.81L132.29-3.81 132.68-3.81Q133.58-6.79 133.97-7.74L133.97-7.74 139.12-21.04Q138.83-21.85 138.32-22.27 137.8-22.68 137.41-22.88L137.41-22.88Q137.19-23 136.77-23.03 136.34-23.07 135.89-23.06 135.44-23.05 135.01-22.99 134.58-22.92 134.34-22.85L134.34-22.85 134.07-23.34Q138.17-25.39 141.27-25.39L141.27-25.39 146.62-8.4Q147.2-6.52 147.72-3.91L147.72-3.91 148.13-3.91Q148.89-6.4 149.43-7.86L149.43-7.86 155.19-22.29Q155.43-22.88 155.07-23.24 154.7-23.61 153.77-23.74 152.84-23.88 151.48-23.75L151.48-23.75 151.33-24.34Q154.46-25.02 158.19-25.1L158.19-25.1 158.48-24.61ZM180.28-17.65L180.28-2.76Q180.28-2.34 180.47-1.99 180.65-1.64 180.91-1.4 181.16-1.17 181.65-0.95 182.14-0.73 182.5-0.61 182.87-0.49 183.53-0.29L183.53-0.29 183.33 0.29Q181.77 0 180.23 0L180.23 0Q178.31 0 176.43 0.39L176.43 0.39 176.28 0.15Q176.79-0.56 176.79-2.44L176.79-2.44 176.79-4.05Q175.57-1.78 173-0.39 170.42 1 167.78 1L167.78 1Q164.98 1 163.25-0.45 161.53-1.9 161.53-4.76L161.53-4.76Q161.53-6.62 162.3-8.07 163.07-9.52 164.35-10.53 165.63-11.55 167.65-12.33 169.66-13.11 171.8-13.6 173.94-14.09 176.79-14.5L176.79-14.5 176.79-16.75Q176.79-23.46 171.49-23.46L171.49-23.46Q169.78-23.46 167.31-22.62 164.83-21.78 163.14-20.41L163.14-20.41 162.14-21.56Q164.27-23.24 167.18-24.34 170.1-25.44 172.64-25.44L172.64-25.44Q173.76-25.44 174.78-25.23 175.79-25.02 176.83-24.48 177.87-23.93 178.61-23.08 179.36-22.24 179.82-20.84 180.28-19.43 180.28-17.65L180.28-17.65ZM168.93-0.85L168.93-0.85Q171.05-0.85 173.37-2.26 175.69-3.66 176.79-5.76L176.79-5.76 176.79-13.21Q170.54-12.3 167.87-10.44 165.19-8.57 165.19-5L165.19-5Q165.19-2.83 166.12-1.84 167.05-0.85 168.93-0.85ZM191.41-2.44L191.41-18.09Q191.41-19.73 191.25-20.83 191.1-21.92 190.69-22.58 190.29-23.24 189.58-23.51 188.87-23.78 187.12-23.75L187.12-23.75 187.02-24.19Q191-25.39 194.42-25.39L194.42-25.39Q194.93-24.1 194.93-22.61L194.93-22.61 194.93-19.6 195.03-19.51Q196.05-20.92 196.99-22.02 197.93-23.12 198.91-23.85 199.88-24.58 200.96-24.96 202.03-25.34 203.35-25.34L203.35-25.34Q204.18-25.34 205.18-25.2L205.18-25.2 203.77-19.24 202.86-19.51Q202.86-19.87 202.81-20.51 202.77-21.14 202.68-21.77 202.59-22.39 202.46-22.84 202.33-23.29 202.16-23.29L202.16-23.29Q201.45-23.29 200.73-22.99 200.01-22.68 199.15-22 198.3-21.31 197.27-20.21 196.25-19.12 194.93-17.55L194.93-17.55 194.93-3.34Q194.93-2.56 195.05-2.09 195.17-1.61 195.56-1.29 195.95-0.98 196.66-0.73 197.37-0.49 198.52-0.2L198.52-0.2 198.32 0.39Q196.91 0.2 195.92 0.1 194.93 0 194.32 0L194.32 0Q192.93 0 191.07 0.39L191.07 0.39 190.92 0.15Q191.41-0.56 191.41-2.44L191.41-2.44ZM208.67-11.89L208.67-11.89Q208.67-14.48 209.53-16.91 210.38-19.34 211.97-21.23 213.55-23.12 215.81-24.26 218.07-25.39 220.88-25.39L220.88-25.39Q222.64-25.39 224.2-24.79 225.76-24.19 226.92-22.94 228.08-21.68 228.75-19.71 229.42-17.75 229.42-15.04L229.42-15.04 228.47-14.16 212.53-14.16Q212.48-13.75 212.48-13.35 212.48-12.96 212.48-12.57L212.48-12.57Q212.48-9.91 213.1-7.74 213.73-5.57 214.79-4.02 215.85-2.47 217.29-1.61 218.73-0.76 220.34-0.76L220.34-0.76Q221.37-0.76 222.43-0.92 223.49-1.07 224.5-1.42 225.52-1.76 226.47-2.29 227.42-2.83 228.23-3.59L228.23-3.59 229.23-2.54Q227.3-0.63 225.03 0.18 222.76 1 219.78 1L219.78 1Q217.44 1 215.4 0.1 213.36-0.81 211.87-2.49 210.38-4.17 209.53-6.56 208.67-8.94 208.67-11.89ZM220.34-23.71L220.34-23.71Q216.56-23.71 214.8-21.74 213.04-19.78 212.68-16.09L212.68-16.09 226.27-16.09Q226.08-20.09 224.48-21.9 222.88-23.71 220.34-23.71ZM254.93-2.44L254.93-17.04Q254.93-19.09 254.54-20.4 254.15-21.7 253.48-22.45 252.81-23.19 251.92-23.49 251.03-23.78 250.03-23.78L250.03-23.78Q248.81-23.78 247.74-23.56 246.68-23.34 245.62-22.89 244.56-22.44 243.46-21.77 242.36-21.09 241.09-20.19L241.09-20.19 241.09-3.34Q241.09-2.56 241.21-2.09 241.33-1.61 241.73-1.29 242.12-0.98 242.82-0.73 243.53-0.49 244.68-0.2L244.68-0.2 244.48 0.39Q243.07 0.2 242.08 0.1 241.09 0 240.09 0 239.09 0 237.23 0.39L237.23 0.39 237.09 0.15Q237.58-0.56 237.58-2.44L237.58-2.44 237.58-31.69Q237.58-33.33 237.42-34.42 237.26-35.52 236.85-36.18 236.45-36.84 235.74-37.11 235.04-37.38 234.24-37.38 233.45-37.38 233.28-37.35L233.28-37.35 233.18-37.79Q237.16-38.99 240.58-38.99L240.58-38.99Q241.09-37.7 241.09-36.21L241.09-36.21 241.09-21.9Q242.78-23.05 244.15-23.79 245.53-24.54 246.74-24.98 247.95-25.42 249.04-25.59 250.12-25.76 251.25-25.76L251.25-25.76Q252.79-25.76 254.07-25.35 255.35-24.95 256.28-24.04 257.2-23.12 257.77-21.63 258.33-20.14 258.42-17.94L258.42-17.94 258.42-2.76Q258.42-2.17 258.71-1.78 258.99-1.39 259.44-1.12 259.89-0.85 260.48-0.67 261.06-0.49 261.7-0.29L261.7-0.29 261.48 0.29Q260.11 0 258.28 0 256.45 0 254.59 0.39L254.59 0.39 254.45 0.15Q254.93-0.56 254.93-2.44L254.93-2.44ZM278.59-25.39L278.59-25.39Q284.2-25.39 287.4-21.95 290.6-18.51 290.6-12.35L290.6-12.35Q290.6-8.79 288.96-5.71 287.33-2.64 284.52-0.82 281.71 1 278.44 1L278.44 1Q272.8 1 269.62-2.4 266.43-5.81 266.43-12.06L266.43-12.06Q266.43-15.77 268.07-18.84 269.7-21.9 272.5-23.65 275.29-25.39 278.59-25.39ZM278.1-23.71L278.1-23.71Q276.17-23.71 274.76-23.14 273.34-22.58 272.48-21.63 271.63-20.68 271.12-19.21 270.6-17.75 270.42-16.21 270.24-14.67 270.24-12.65L270.24-12.65Q270.24-9.42 271.01-7.02 271.78-4.61 273.07-3.28 274.36-1.95 275.83-1.33 277.29-0.71 278.93-0.71L278.93-0.71Q280.83-0.71 282.26-1.31 283.69-1.9 284.55-2.87 285.4-3.83 285.91-5.31 286.43-6.79 286.61-8.3 286.79-9.81 286.79-11.74L286.79-11.74Q286.79-14.45 286.28-16.58 285.77-18.7 284.92-20.02 284.08-21.34 282.92-22.19 281.76-23.05 280.59-23.38 279.42-23.71 278.1-23.71ZM318.43-22.19L318.43-6.81Q318.43-5.18 318.59-4.09 318.75-3 319.15-2.34 319.55-1.68 320.26-1.4 320.97-1.12 321.75-1.12 322.53-1.12 322.73-1.15L322.73-1.15 322.85-0.71Q318.82 0.49 315.43 0.49L315.43 0.49Q314.94-0.83 314.94-2.29L314.94-2.29 314.94-3.44Q313.64-2.29 312.53-1.46 311.42-0.63 310.35-0.09 309.27 0.46 308.15 0.73 307.03 1 305.73 1L305.73 1Q304.27 1 302.82 0.66 301.36 0.32 300.19-0.56 299.02-1.44 298.3-2.95 297.58-4.47 297.58-6.81L297.58-6.81 297.58-21.9Q297.58-22.88 296.76-23.39 295.94-23.9 294.33-24.34L294.33-24.34 294.53-24.95Q295.94-24.66 298.19-24.66L298.19-24.66Q299.58-24.66 301.44-25.05L301.44-25.05 301.58-24.8Q301.1-24.05 301.1-22.19L301.1-22.19 301.1-7.69Q301.1-5.66 301.56-4.36 302.02-3.05 302.8-2.29 303.59-1.54 304.64-1.26 305.69-0.98 306.86-0.98L306.86-0.98Q307.96-0.98 308.9-1.21 309.84-1.44 310.79-1.94 311.74-2.44 312.74-3.23 313.74-4.03 314.94-5.15L314.94-5.15 314.94-21.29Q314.94-22.05 314.8-22.52 314.67-23 314.29-23.33 313.91-23.66 313.2-23.9 312.5-24.15 311.35-24.44L311.35-24.44 311.54-25.05Q312.94-24.85 313.94-24.76 314.94-24.66 315.55-24.66L315.55-24.66Q316.94-24.66 318.8-25.05L318.8-25.05 318.94-24.8Q318.43-24.07 318.43-22.19L318.43-22.19ZM344.4-5.69L344.4-5.69Q344.4-3.93 343.7-2.66 342.99-1.39 341.8-0.57 340.62 0.24 339.04 0.62 337.47 1 335.74 1L335.74 1Q331.54 1 327.85-0.76L327.85-0.76Q328.31-2.37 328.78-3.75 329.24-5.13 329.73-6.3L329.73-6.3 330.44-6.05Q330.22-4.98 330.22-3.99 330.22-3 330.29-2.2L330.29-2.2Q331.05-1.81 331.71-1.53 332.37-1.25 333.03-1.06 333.69-0.88 334.44-0.79 335.2-0.71 336.2-0.71L336.2-0.71Q337.69-0.71 338.67-0.9 339.64-1.1 340.19-1.57 340.74-2.05 340.96-2.84 341.18-3.64 341.18-4.81L341.18-4.81Q341.18-5.71 340.88-6.51 340.57-7.3 339.83-8.08 339.08-8.86 337.85-9.7 336.62-10.55 334.78-11.55L334.78-11.55Q331.83-13.31 330.32-15.05 328.8-16.8 328.8-18.8L328.8-18.8Q328.8-20.39 329.46-21.62 330.12-22.85 331.26-23.69 332.39-24.54 333.91-24.96 335.42-25.39 337.1-25.39L337.1-25.39Q337.96-25.39 338.9-25.27 339.84-25.15 340.72-24.91 341.6-24.68 342.37-24.35 343.13-24.02 343.7-23.61L343.7-23.61Q342.91-20.41 341.79-17.99L341.79-17.99 341.08-18.26Q341.13-18.97 341.16-20.01 341.18-21.04 341.18-22.46L341.18-22.46Q339.59-23.71 336.79-23.71L336.79-23.71Q335.39-23.71 334.43-23.54 333.47-23.36 332.88-22.95 332.29-22.53 332.04-21.81 331.78-21.09 331.78-20L331.78-20Q331.78-19.19 332-18.49 332.22-17.8 332.78-17.13 333.34-16.46 334.31-15.76 335.27-15.06 336.79-14.26L336.79-14.26Q339.15-12.96 340.63-11.99 342.11-11.01 342.95-10.07 343.79-9.13 344.1-8.11 344.4-7.08 344.4-5.69ZM349.63-11.89L349.63-11.89Q349.63-14.48 350.48-16.91 351.33-19.34 352.92-21.23 354.51-23.12 356.77-24.26 359.03-25.39 361.83-25.39L361.83-25.39Q363.59-25.39 365.15-24.79 366.72-24.19 367.88-22.94 369.03-21.68 369.71-19.71 370.38-17.75 370.38-15.04L370.38-15.04 369.43-14.16 353.48-14.16Q353.43-13.75 353.43-13.35 353.43-12.96 353.43-12.57L353.43-12.57Q353.43-9.91 354.06-7.74 354.68-5.57 355.74-4.02 356.8-2.47 358.24-1.61 359.68-0.76 361.3-0.76L361.3-0.76Q362.32-0.76 363.38-0.92 364.45-1.07 365.46-1.42 366.47-1.76 367.42-2.29 368.38-2.83 369.18-3.59L369.18-3.59 370.18-2.54Q368.25-0.63 365.98 0.18 363.71 1 360.73 1L360.73 1Q358.39 1 356.35 0.1 354.31-0.81 352.82-2.49 351.33-4.17 350.48-6.56 349.63-8.94 349.63-11.89ZM361.3-23.71L361.3-23.71Q357.51-23.71 355.75-21.74 354-19.78 353.63-16.09L353.63-16.09 367.23-16.09Q367.03-20.09 365.43-21.9 363.83-23.71 361.3-23.71Z" opacity="1" transform="matrix(1,0,0,1,0,0)" fill="#ffffff" class="wordmark-text-0" data-fill-palette-color="quaternary" id="text-0"></path></svg></g></svg></g><g transform="matrix(1,0,0,1,0,38.229887308273085)"><svg viewBox="0 0 213.15844122715714 16.40124554551954" height="16.40124554551954" width="213.15844122715714"><g transform="matrix(1,0,0,1,0,0)"><svg width="213.15844122715714" viewBox="2.5 -43.65 738.2 56.8" height="16.40124554551954" data-palette-color="#000000"><path d="M51.3-1.95L50.3 0.05 35.1 0.05 35.1-1.5 39.8-5.2 39.8-32.85 26.45 0.05 23.7 0.05 10.45-33.2 10.45-4.6 15.7-1.95 14.7 0.05 3 0.05 3-1.5 7.7-5.2 7.7-34.5 2.5-37.3 3.5-39.3 14.35-39.3 26.85-7.9 39.3-39.3 50.8-39.3 50.8-37.75 46.05-34.05 46.05-3.8 51.3-1.95ZM83.6-2L82.6 0 73.1 0 73.1-4.35 67.45 0.1Q66.45 0.5 64.95 0.5L64.95 0.5Q60.65 0.5 58.73-1.65 56.8-3.8 56.8-6.8L56.8-6.8Q56.8-8.6 58.1-10.35 59.4-12.1 61.8-13.65L61.8-13.65 73.1-13.65 73.1-16.85Q73.1-20.1 71.38-21.45 69.65-22.8 66.65-22.8L66.65-22.8Q63.55-22.8 59.05-19.05L59.05-19.05 57.55-20.95 64.75-26.65Q66.75-27.05 69.55-27.05L69.55-27.05Q74.1-27.05 76.6-24.83 79.1-22.6 79.1-18.35L79.1-18.35 79.1-3.75 83.6-2ZM66.55-3.75Q69.6-3.75 73.1-6.55L73.1-6.55 73.1-11.6 64.25-11.6Q63.6-10.8 63.33-10 63.05-9.2 63.05-8.25L63.05-8.25Q63.05-6.4 64-5.08 64.95-3.75 66.55-3.75L66.55-3.75ZM97.05-3.75L101.55-2 100.55 0 86.6 0 86.6-1.55 91.05-5.05 91.05-35.8 86.6-38.9 86.6-40.45 95.15-43.65 97.05-43.65 97.05-3.75ZM118.55-2L117.55 0 109.1 0 99.7-13.2 109.05-21.05 104.25-24.55 105.25-26.55 117.2-26.55 117.2-25 105.6-15.25 114.05-3.75 118.55-2ZM137-2L136 0 122.05 0 122.05-1.55 126.5-5.05 126.5-19.65 122.05-22.75 122.05-24.3 130.6-27.5 132.5-27.5 132.5-3.75 137-2ZM129.3-42.5Q130.8-42.5 131.78-41.4 132.75-40.3 132.75-38.65L132.75-38.65Q132.75-37.5 132.05-36.48 131.35-35.45 130.3-34.85 129.25-34.25 128.25-34.25L128.25-34.25Q126.75-34.25 125.78-35.35 124.8-36.45 124.8-38.1L124.8-38.1Q124.8-39.25 125.5-40.28 126.2-41.3 127.25-41.9 128.3-42.5 129.3-42.5L129.3-42.5ZM173.45-1.95L172.45 0.05 162.95 0.05 162.95-16.8Q162.95-19.55 162.1-20.65 161.25-21.75 159.05-21.75L159.05-21.75Q157.4-21.75 155.78-21.15 154.15-20.55 151.95-18.85L151.95-18.85 151.95-3.7 156.45-1.95 155.45 0.05 141.5 0.05 141.5-1.5 145.95-5 145.95-19.15 141.5-21.75 141.5-23.3 150.05-27.5 151.7-21 158.8-26.65Q159.85-27.05 161.55-27.05L161.55-27.05Q164.95-27.05 166.95-24.98 168.95-22.9 168.95-19.35L168.95-19.35 168.95-3.75 173.45-1.95ZM205.25-23.1L199.35-23.1Q200.75-21.1 200.75-18.6L200.75-18.6Q200.75-16.4 199.5-14.28 198.25-12.15 196.15-10.55 194.05-8.95 191.55-8.15L191.55-8.15Q190.2-6.8 190.2-5.3L190.2-5.3Q190.2-4.45 191.52-3.73 192.85-3 195.45-2L195.45-2Q199-0.6 200.92 0.58 202.85 1.75 202.85 3.45L202.85 3.45Q202.85 4.95 200.92 7.3 199 9.65 196.15 11.4 193.3 13.15 190.65 13.15L190.65 13.15Q187.85 13.15 184.02 12.2 180.2 11.25 177.65 10.3L177.65 10.3 177.65 2.6 179.55 2.6Q182.35 6.05 185.25 7.85 188.15 9.65 191.8 9.65L191.8 9.65Q193.15 9.65 194.27 9.1 195.4 8.55 196.02 7.73 196.65 6.9 196.65 6.15L196.65 6.15Q196.65 4.8 195.1 3.83 193.55 2.85 190.25 1.45L190.25 1.45Q187.1 0.15 185.57-0.8 184.05-1.75 184.05-3L184.05-3Q184.05-4.2 185.65-5.45 187.25-6.7 189.45-7.65L189.45-7.65Q188.65-7.5 187.8-7.5L187.8-7.5Q185.15-7.5 182.95-8.68 180.75-9.85 179.47-11.8 178.2-13.75 178.2-16.05L178.2-16.05Q178.2-18.8 180.1-21.35 182-23.9 185.02-25.48 188.05-27.05 191.2-27.05L191.2-27.05Q194.7-27.05 197.35-25.05L197.35-25.05 205.2-25.05 205.25-23.1ZM190.7-11.8Q192.95-11.8 194.13-12.93 195.3-14.05 195.3-16.25L195.3-16.25Q195.3-19.25 193.38-21.1 191.45-22.95 188.3-22.95L188.3-22.95Q186.1-22.95 184.92-21.88 183.75-20.8 183.75-18.6L183.75-18.6Q183.75-15.55 185.67-13.68 187.6-11.8 190.7-11.8L190.7-11.8ZM239.5-5.4Q239.5-6.8 237.95-7.98 236.4-9.15 233.2-10.8L233.2-10.8Q230.6-12.15 229-13.15 227.4-14.15 226.27-15.48 225.15-16.8 225.15-18.35L225.15-18.35Q225.15-20.15 226.65-22.2 228.15-24.25 230.35-25.65 232.55-27.05 234.45-27.05L234.45-27.05Q236.75-27.05 239.77-26.48 242.8-25.9 244.15-25.2L244.15-25.2 244.15-17.5 242.25-17.5Q240.65-20.6 238.55-22.33 236.45-24.05 234.25-24.05L234.25-24.05Q232.7-24.05 231.75-23.23 230.8-22.4 230.8-21.15L230.8-21.15Q230.8-19.6 232.42-18.38 234.05-17.15 237.35-15.5L237.35-15.5Q239.9-14.2 241.45-13.25 243-12.3 244.07-11.03 245.15-9.75 245.15-8.2L245.15-8.2Q245.15-6.35 243.57-4.33 242-2.3 239.72-0.9 237.45 0.5 235.55 0.5L235.55 0.5Q233.1 0.5 229.72-0.08 226.35-0.65 224.9-1.35L224.9-1.35 224.9-9.05 226.8-9.05Q228.55-5.95 230.95-4.23 233.35-2.5 235.8-2.5L235.8-2.5Q237.45-2.5 238.47-3.35 239.5-4.2 239.5-5.4L239.5-5.4ZM282.3-2L281.3 0 271.8 0 271.8-16.85Q271.8-19.6 270.95-20.7 270.1-21.8 267.9-21.8L267.9-21.8Q266.25-21.8 264.62-21.2 263-20.6 260.8-18.9L260.8-18.9 260.8-3.75 265.3-2 264.3 0 250.35 0 250.35-1.55 254.8-5.05 254.8-35.8 250.35-38.9 250.35-40.45 258.9-43.65 260.8-43.65 260.8-21.25 267.65-26.65Q268.7-27.05 270.4-27.05L270.4-27.05Q273.8-27.05 275.8-24.98 277.8-22.9 277.8-19.35L277.8-19.35 277.8-3.75 282.3-2ZM302.1-27.05Q305.4-27.05 308.02-25.33 310.65-23.6 312.12-20.65 313.6-17.7 313.6-14.15L313.6-14.15Q313.6-10.3 311.25-6.93 308.9-3.55 305.37-1.53 301.85 0.5 298.55 0.5L298.55 0.5Q295.25 0.5 292.62-1.23 290-2.95 288.52-5.9 287.05-8.85 287.05-12.4L287.05-12.4Q287.05-16.25 289.4-19.63 291.75-23 295.27-25.03 298.8-27.05 302.1-27.05L302.1-27.05ZM299.2-22.85Q293.55-22.85 293.55-14.8L293.55-14.8Q293.55-10.05 295.6-6.88 297.65-3.7 301.45-3.7L301.45-3.7Q307.1-3.7 307.1-11.8L307.1-11.8Q307.1-16.5 305.05-19.68 303-22.85 299.2-22.85L299.2-22.85ZM335.3 0.55Q332.6 0.55 330.3-1.1L330.3-1.1 330.3 8.6 337.3 10.75 336.3 12.75 319.85 12.75 319.85 11.2 324.3 7.7 324.3-19.15 319.85-21.75 319.85-23.3 328.4-27.5 330.05-21 337.2-26.65Q338.8-27.05 340.85-27.05L340.85-27.05Q343.55-27.05 345.72-25.33 347.9-23.6 349.12-20.65 350.35-17.7 350.35-14.15L350.35-14.15Q350.35-10.3 348-6.93 345.65-3.55 342.12-1.53 338.6 0.5 335.3 0.5L335.3 0.5 335.3 0.55ZM338.3-22.25Q336.4-22.25 334.6-21.5 332.8-20.75 330.3-18.55L330.3-18.55 330.3-10.1Q330.3-7.35 332.35-5.5 334.4-3.65 338.2-3.65L338.2-3.65Q343.85-3.65 343.85-11.7L343.85-11.7Q343.85-16.15 342.4-19.2 340.95-22.25 338.3-22.25L338.3-22.25ZM372.05 0.55Q369.35 0.55 367.05-1.1L367.05-1.1 367.05 8.6 374.05 10.75 373.05 12.75 356.6 12.75 356.6 11.2 361.05 7.7 361.05-19.15 356.6-21.75 356.6-23.3 365.15-27.5 366.8-21 373.95-26.65Q375.55-27.05 377.6-27.05L377.6-27.05Q380.3-27.05 382.47-25.33 384.65-23.6 385.87-20.65 387.1-17.7 387.1-14.15L387.1-14.15Q387.1-10.3 384.75-6.93 382.4-3.55 378.87-1.53 375.35 0.5 372.05 0.5L372.05 0.5 372.05 0.55ZM375.05-22.25Q373.15-22.25 371.35-21.5 369.55-20.75 367.05-18.55L367.05-18.55 367.05-10.1Q367.05-7.35 369.1-5.5 371.15-3.65 374.95-3.65L374.95-3.65Q380.6-3.65 380.6-11.7L380.6-11.7Q380.6-16.15 379.15-19.2 377.7-22.25 375.05-22.25L375.05-22.25ZM408.3-2L407.3 0 393.35 0 393.35-1.55 397.8-5.05 397.8-19.65 393.35-22.75 393.35-24.3 401.9-27.5 403.8-27.5 403.8-3.75 408.3-2ZM400.6-42.5Q402.1-42.5 403.07-41.4 404.05-40.3 404.05-38.65L404.05-38.65Q404.05-37.5 403.35-36.48 402.65-35.45 401.6-34.85 400.55-34.25 399.55-34.25L399.55-34.25Q398.05-34.25 397.07-35.35 396.1-36.45 396.1-38.1L396.1-38.1Q396.1-39.25 396.8-40.28 397.5-41.3 398.55-41.9 399.6-42.5 400.6-42.5L400.6-42.5ZM444.75-1.95L443.75 0.05 434.25 0.05 434.25-16.8Q434.25-19.55 433.4-20.65 432.55-21.75 430.35-21.75L430.35-21.75Q428.7-21.75 427.07-21.15 425.45-20.55 423.25-18.85L423.25-18.85 423.25-3.7 427.75-1.95 426.75 0.05 412.8 0.05 412.8-1.5 417.25-5 417.25-19.15 412.8-21.75 412.8-23.3 421.35-27.5 423-21 430.1-26.65Q431.15-27.05 432.85-27.05L432.85-27.05Q436.25-27.05 438.25-24.98 440.25-22.9 440.25-19.35L440.25-19.35 440.25-3.75 444.75-1.95ZM476.55-23.1L470.65-23.1Q472.05-21.1 472.05-18.6L472.05-18.6Q472.05-16.4 470.8-14.28 469.55-12.15 467.45-10.55 465.35-8.95 462.85-8.15L462.85-8.15Q461.5-6.8 461.5-5.3L461.5-5.3Q461.5-4.45 462.82-3.73 464.15-3 466.75-2L466.75-2Q470.3-0.6 472.22 0.58 474.15 1.75 474.15 3.45L474.15 3.45Q474.15 4.95 472.22 7.3 470.3 9.65 467.45 11.4 464.6 13.15 461.95 13.15L461.95 13.15Q459.15 13.15 455.32 12.2 451.5 11.25 448.95 10.3L448.95 10.3 448.95 2.6 450.85 2.6Q453.65 6.05 456.55 7.85 459.45 9.65 463.1 9.65L463.1 9.65Q464.45 9.65 465.57 9.1 466.7 8.55 467.32 7.73 467.95 6.9 467.95 6.15L467.95 6.15Q467.95 4.8 466.4 3.83 464.85 2.85 461.55 1.45L461.55 1.45Q458.4 0.15 456.87-0.8 455.35-1.75 455.35-3L455.35-3Q455.35-4.2 456.95-5.45 458.55-6.7 460.75-7.65L460.75-7.65Q459.95-7.5 459.1-7.5L459.1-7.5Q456.45-7.5 454.25-8.68 452.05-9.85 450.77-11.8 449.5-13.75 449.5-16.05L449.5-16.05Q449.5-18.8 451.4-21.35 453.3-23.9 456.32-25.48 459.35-27.05 462.5-27.05L462.5-27.05Q466-27.05 468.65-25.05L468.65-25.05 476.5-25.05 476.55-23.1ZM462-11.8Q464.25-11.8 465.42-12.93 466.6-14.05 466.6-16.25L466.6-16.25Q466.6-19.25 464.67-21.1 462.75-22.95 459.6-22.95L459.6-22.95Q457.4-22.95 456.22-21.88 455.05-20.8 455.05-18.6L455.05-18.6Q455.05-15.55 456.97-13.68 458.9-11.8 462-11.8L462-11.8ZM521.75-2L520.75 0 511.25 0 511.25-4.35 505.6 0.1Q504.6 0.5 503.1 0.5L503.1 0.5Q498.8 0.5 496.87-1.65 494.95-3.8 494.95-6.8L494.95-6.8Q494.95-8.6 496.25-10.35 497.55-12.1 499.95-13.65L499.95-13.65 511.25-13.65 511.25-16.85Q511.25-20.1 509.52-21.45 507.8-22.8 504.8-22.8L504.8-22.8Q501.7-22.8 497.2-19.05L497.2-19.05 495.7-20.95 502.9-26.65Q504.9-27.05 507.7-27.05L507.7-27.05Q512.25-27.05 514.75-24.83 517.25-22.6 517.25-18.35L517.25-18.35 517.25-3.75 521.75-2ZM504.7-3.75Q507.75-3.75 511.25-6.55L511.25-6.55 511.25-11.6 502.4-11.6Q501.75-10.8 501.47-10 501.2-9.2 501.2-8.25L501.2-8.25Q501.2-6.4 502.15-5.08 503.1-3.75 504.7-3.75L504.7-3.75ZM566.15-26.55L566.15-25 555 0 551.2 0 546-12.75 539.55 0 535.75 0 527.95-19.05 523.3-21.75 523.3-23.3 531.85-27.5 533.75-19.95 539.85-5.1 544.75-15.65 543.35-19.05 538.7-21.75 538.7-23.3 547.25-27.5 549.15-19.95 555.1-5.5 561.1-19.5 554.15-24.55 555.15-26.55 566.15-26.55ZM595.1-6.9L586.25 0.1Q584.25 0.5 581.45 0.5L581.45 0.5Q578.15 0.5 575.52-1.23 572.9-2.95 571.42-5.9 569.95-8.85 569.95-12.4L569.95-12.4Q569.95-16.25 572.3-19.63 574.65-23 578.17-25.03 581.7-27.05 585-27.05L585-27.05Q589.75-27.05 592.37-23.3 595-19.55 595-13.4L595-13.4 576.5-13.4Q576.8-9.15 578.82-6.45 580.85-3.75 584.35-3.75L584.35-3.75Q587.6-3.75 593.6-8.8L593.6-8.8 595.1-6.9ZM582.1-22.85Q576.7-22.85 576.45-15.45L576.45-15.45 588.15-15.45Q587.7-18.15 587.22-19.58 586.75-21 585.57-21.93 584.4-22.85 582.1-22.85L582.1-22.85ZM617.45-5.4Q617.45-6.8 615.9-7.98 614.35-9.15 611.15-10.8L611.15-10.8Q608.55-12.15 606.95-13.15 605.35-14.15 604.22-15.48 603.1-16.8 603.1-18.35L603.1-18.35Q603.1-20.15 604.6-22.2 606.1-24.25 608.3-25.65 610.5-27.05 612.4-27.05L612.4-27.05Q614.7-27.05 617.72-26.48 620.75-25.9 622.1-25.2L622.1-25.2 622.1-17.5 620.2-17.5Q618.6-20.6 616.5-22.33 614.4-24.05 612.2-24.05L612.2-24.05Q610.65-24.05 609.7-23.23 608.75-22.4 608.75-21.15L608.75-21.15Q608.75-19.6 610.37-18.38 612-17.15 615.3-15.5L615.3-15.5Q617.85-14.2 619.4-13.25 620.95-12.3 622.02-11.03 623.1-9.75 623.1-8.2L623.1-8.2Q623.1-6.35 621.52-4.33 619.95-2.3 617.67-0.9 615.4 0.5 613.5 0.5L613.5 0.5Q611.05 0.5 607.67-0.08 604.3-0.65 602.85-1.35L602.85-1.35 602.85-9.05 604.75-9.05Q606.5-5.95 608.9-4.23 611.3-2.5 613.75-2.5L613.75-2.5Q615.4-2.5 616.42-3.35 617.45-4.2 617.45-5.4L617.45-5.4ZM645.1-27.05Q648.4-27.05 651.02-25.33 653.65-23.6 655.13-20.65 656.6-17.7 656.6-14.15L656.6-14.15Q656.6-10.3 654.25-6.93 651.9-3.55 648.38-1.53 644.85 0.5 641.55 0.5L641.55 0.5Q638.25 0.5 635.63-1.23 633-2.95 631.52-5.9 630.05-8.85 630.05-12.4L630.05-12.4Q630.05-16.25 632.4-19.63 634.75-23 638.27-25.03 641.8-27.05 645.1-27.05L645.1-27.05ZM642.2-22.85Q636.55-22.85 636.55-14.8L636.55-14.8Q636.55-10.05 638.6-6.88 640.65-3.7 644.45-3.7L644.45-3.7Q650.1-3.7 650.1-11.8L650.1-11.8Q650.1-16.5 648.05-19.68 646-22.85 642.2-22.85L642.2-22.85ZM710.85-2L709.85 0 700.35 0 700.35-16.85Q700.35-19.6 699.5-20.7 698.65-21.8 696.45-21.8L696.45-21.8Q694.9-21.8 693.4-21.23 691.9-20.65 689.85-18.95L689.85-18.95 689.85-3.75 694.35-2 693.35 0 683.85 0 683.85-16.85Q683.85-19.6 683-20.7 682.15-21.8 679.95-21.8L679.95-21.8Q678.4-21.8 676.9-21.23 675.4-20.65 673.35-18.95L673.35-18.95 673.35-3.75 677.85-2 676.85 0 662.9 0 662.9-1.55 667.35-5.05 667.35-19.2 662.9-21.8 662.9-23.35 671.45-27.55 673.05-21.15 679.7-26.7Q680.75-27.1 682.45-27.1L682.45-27.1Q685.35-27.1 687.25-25.53 689.15-23.95 689.65-21.2L689.65-21.2 696.15-26.65Q697.2-27.05 698.9-27.05L698.9-27.05Q702.3-27.05 704.3-24.98 706.3-22.9 706.3-19.35L706.3-19.35 706.3-3.75 710.85-2ZM740.7-6.9L731.85 0.1Q729.85 0.5 727.05 0.5L727.05 0.5Q723.75 0.5 721.13-1.23 718.5-2.95 717.02-5.9 715.55-8.85 715.55-12.4L715.55-12.4Q715.55-16.25 717.9-19.63 720.25-23 723.77-25.03 727.3-27.05 730.6-27.05L730.6-27.05Q735.35-27.05 737.97-23.3 740.6-19.55 740.6-13.4L740.6-13.4 722.1-13.4Q722.4-9.15 724.42-6.45 726.45-3.75 729.95-3.75L729.95-3.75Q733.2-3.75 739.2-8.8L739.2-8.8 740.7-6.9ZM727.7-22.85Q722.3-22.85 722.05-15.45L722.05-15.45 733.75-15.45Q733.3-18.15 732.82-19.58 732.35-21 731.17-21.93 730-22.85 727.7-22.85L727.7-22.85Z" opacity="1" transform="matrix(1,0,0,1,0,0)" fill="#ffffff" class="slogan-text-1" data-fill-palette-color="quaternary" id="text-1"></path></svg></g></svg></g></svg></g></svg></g><g transform="matrix(1,0,0,1,61.97949662107294,0)"><svg viewBox="0 0 89.19944798501126 75.50022560394142" height="75.50022560394142" width="89.19944798501126"><g><svg xmlns="http://www.w3.org/2000/svg" xmlns:xlink="http://www.w3.org/1999/xlink" version="1.1" x="0" y="0" viewBox="1.7 8.3 86.6 73.30000000000001" enable-background="new 0 0 90 90" xml:space="preserve" height="75.50022560394142" width="89.19944798501126" class="icon-icon-0" data-fill-palette-color="quaternary" id="icon-0"><path d="M6.9 70.8h22.6l0 0L29.1 72l0 0v-0.1l-0.2 0.7H8.3l0 0H8.2c-2.5 0-4.5 2-4.5 4.5s2 4.5 4.5 4.5 4.5-2 4.5-4.5c0-0.6-0.1-1.1-0.3-1.6h15.5c-0.2 0.5-0.3 1-0.3 1.6 0 2.5 2 4.5 4.5 4.5s4.5-2 4.5-4.5c0-2.4-2-4.5-4.5-4.5H32l8-23.3h2.9c0.5 0.7 1.3 1.3 2.3 1.3 0.4 0 0.8-0.1 1.2-0.3 1.4 1 3.1 1.4 4.9 1.1l0.2 1.1 6.3-1.3v18.7c-0.1 0-0.1 0-0.1 0-3.4 0-6.3 2.9-6.4 6.4v3.9h4.5 13 9.4l0 0 0 0V57.9c0.3 0.2 0.7 0.3 1.1 0.3h6.5c1.4 0 2.5-1.1 2.5-2.5V27.8c0-1.4-1.1-2.5-2.5-2.5H81c0.4-2.3 0.2-4.8-0.6-7.2-1.3-3.6-4-6.6-7.5-8.3-2.1-1-4.3-1.5-6.6-1.5-5.5 0-10.5 3.1-12.9 8-1.7 3.4-1.9 7.3-0.6 11 1.2 3.4 3.5 6.1 6.6 7.9-0.3 0.4-0.5 0.8-0.7 1.2-0.6 0.7-0.8 4.4-0.8 5.6l-8.2 1.6 0.2 0.9-3.7 0.8c-0.3-0.1-0.6-0.2-1-0.2-1 0-1.8 0.4-2.3 1.3H39c-0.1 0-0.1 0-0.2 0-0.6 0.1-1 0.5-1.2 1L36 52l0 0H1.7L2 52.9l4.8 17.3 0.1 0.5V70.8zM59.8 37L59.8 37c0.2-0.4 0.5-0.8 0.7-1.2 2 0.9 4.1 1.4 6.3 1.4l0 0c2.9 0 5.6-0.8 7.9-2.3 1.3 1.7 2.1 3.8 2.1 6v35h-8.1c-0.3-3-2.6-5.5-5.5-5.9V59.1h-1.1v10.8c-0.7 0-1.4 0.1-2.1 0.4-0.3-0.1-0.6-0.2-0.9-0.3V50.9l6.1-1.2c2.4-0.5 4-2.9 3.5-5.3s-2.9-4-5.3-3.5l-4.1 0.8C59.4 40.1 59.6 37.6 59.8 37zM61.7 11.1c1.5 0.7 6.4 3.4 7.7 6.8V18c0.1 0.2 0.1 0.3 0.1 0.3 0.2 0.8 0.3 2.4-0.9 5-2 4-6.1 6.6-10.5 6.6-1 0-1.9-0.1-2.8-0.3-0.5-0.8-1-1.7-1.3-2.7-1.2-3.3-1-6.9 0.5-10 1.4-2.8 3.7-4.9 6.4-6.1C61.4 11 61.7 11.2 61.7 11.1zM78.5 28.7c-0.8 1.8-2.1 3.3-3.6 4.5-0.2 0.2-0.3 0.3-0.5 0.4 0 0.1-0.1 0.1-0.1 0.1-0.1 0.1-0.3 0.2-0.5 0.3-2.1 1.3-4.5 2-7 2-2.1 0-4.1-0.5-6-1.4-0.2-0.1-0.5-0.3-0.7-0.4-1.7-1-3.1-2.2-4.2-3.7 0.7 0.1 1.5 0.2 2.2 0.2 4.7 0 9-2.8 11.1-7 1.3-2.6 1.2-4.5 1-5.5 0 0 0-0.1-0.1-0.3v-0.1c-0.5-1.2-2.1-4.3-8.1-7.2 0 0-0.1 0-0.2-0.1 1.4-0.5 2.9-0.8 4.5-0.8 2.1 0 4.1 0.5 6 1.4 3.2 1.6 5.6 4.3 6.8 7.6C80.3 22 80.1 25.5 78.5 28.7zM78.1 31.8c0.6-0.8 1.2-1.6 1.6-2.5 0.4-0.9 0.8-1.7 1-2.6h5.1c0.6 0 1.1 0.5 1.1 1.1v27.9c0 0.6-0.5 1.1-1.1 1.1h-6.6c-0.6 0-1.1-0.5-1.1-1.1V31.8L78.1 31.8zM76.9 33.1L76.9 33.1l-0.1 2.6c-0.3-0.6-0.6-1.1-1-1.6C76.2 33.8 76.5 33.5 76.9 33.1zM57.2 77.2h6.9l0 0h12.7l0 0v1.7H57.2V77.2zM57.7 75.9h-0.6c0-0.7 0.2-1.3 0.5-1.8 0.3-0.7 0.7-1.2 1.3-1.7 0.3-0.2 0.6-0.4 0.9-0.6 0.5-0.2 1-0.4 1.6-0.5 0.1-0.1 0.3-0.1 0.5-0.1 0.1 0 0.1 0 0.2 0 0.2 0 0.3 0 0.5 0s0.3 0.1 0.5 0.1c2.1 0.4 3.8 2.3 4.1 4.5H64h-0.8-0.5l0 0H62h-3l0 0L57.7 75.9 57.7 75.9zM52.8 77.2h2.9v1.7h-2.9V77.2zM58.3 71.2c-0.2 0.1-0.4 0.3-0.6 0.5-1.1 1.1-1.8 2.5-2 4.1h-3.1c0.4-2.6 2.5-4.6 5.1-4.6C57.7 71.2 58 71.2 58.3 71.2zM51.3 44.7l8-1.6 0 0 0 0 4.5-0.9c1.7-0.3 3.4 0.8 3.7 2.5 0.3 1.7-0.8 3.4-2.5 3.7l-12.5 2.5L51.3 44.7zM45.3 47.1l4.2-0.9 0.9 4.1C48.2 50.3 46.2 49.1 45.3 47.1zM9.7 77.1c0 0.9-0.7 1.6-1.6 1.6S6.5 78 6.5 77.1s0.7-1.6 1.6-1.6l0 0c0 0 0.1 0 0.2 0l0 0C9.2 75.6 9.8 76.3 9.7 77.1zM21.8 69.3l0.2-4.9h5l-0.9 4.9H21.8zM21.7 64.2h-5l-0.3-5.1h5.5L21.7 64.2zM16.5 64.2h-4.9l-0.8-5.1h5.4L16.5 64.2zM16.8 64.4h4.9l-0.2 4.9H17L16.8 64.4zM12.4 69.3l-0.7-4.9h4.8l0.3 4.9H12.4zM6.7 64.4h4.7l0.7 4.9H8L6.7 64.4zM5.2 59.1h5.4l0.8 5.1H6.6L5.2 59.1zM9.6 53.5l0.8 5.1H5l-1.4-5.1H9.6zM16.2 58.6h-5.4L10 53.5h5.9L16.2 58.6zM22.2 53.5L22 58.6h-5.5l-0.3-5.1H22.2zM22.3 59.1H28l-1 5.1h-5L22.3 59.1zM28.9 53.5L28 58.6h-5.8l0.2-5.1H28.9zM33.7 58.6h-5.4l0.9-5.1h6.3L33.7 58.6zM31.9 64.2h-4.5l0.9-5.1h5.3L31.9 64.2zM30.4 77.1c0-0.9 0.7-1.6 1.6-1.6 0.9 0 1.6 0.7 1.6 1.6s-0.7 1.6-1.6 1.6C31.1 78.7 30.4 78 30.4 77.1zM26.4 69.3l0.9-4.9h4.4L30 69.3H26.4zM85.1 31.2c0.4 0 0.7 0.3 0.7 0.7s-0.3 0.7-0.7 0.7H80c-0.4 0-0.7-0.3-0.7-0.7s0.3-0.7 0.7-0.7H85.1zM80 33.3h5.1c0.4 0 0.7 0.3 0.7 0.7s-0.3 0.7-0.7 0.7H80c-0.4 0-0.7-0.3-0.7-0.7S79.6 33.3 80 33.3zM80 35.3h5.1c0.4 0 0.7 0.3 0.7 0.7s-0.3 0.7-0.7 0.7H80c-0.4 0-0.7-0.3-0.7-0.7C79.3 35.7 79.6 35.4 80 35.3z" fill="#ffffff" data-fill-palette-color="quaternary"></path></svg></g></svg></g><g></g></svg></g></svg></g></svg></g></svg></g><defs></defs></svg><rect width="342.8515585177538" height="342.8515585177538" fill="none" stroke="none" visibility="hidden"></rect></g></svg></g></svg>