<svg width="110" height="110" viewBox="0 0 110 110" fill="none" xmlns="http://www.w3.org/2000/svg">
<g id="mingcute:celebrate-fill" clip-path="url(#clip0_59_1266)">
<g id="Group">
<path id="Vector" d="M37.0171 33.2746L37.4525 33.6551L76.3467 72.5446C76.8565 73.0539 77.239 73.6762 77.4632 74.3609C77.6874 75.0457 77.747 75.7737 77.6372 76.4858C77.5274 77.198 77.2512 77.8742 76.8311 78.4596C76.4109 79.045 75.8587 79.5231 75.2192 79.8551L74.6875 80.0842L27.0896 97.6246C18.1429 100.925 9.43002 92.5142 12.1479 83.5813L12.3771 82.9121L29.9129 35.3142C30.1448 34.6837 30.5124 34.1119 30.9897 33.6392C31.4671 33.1665 32.0425 32.8045 32.6752 32.5789C33.308 32.3532 33.9826 32.2694 34.6513 32.3334C35.3201 32.3974 35.9665 32.6077 36.545 32.9492L37.0171 33.2701V33.2746ZM78.4092 53.1846C82.5846 53.4046 88.3092 54.2846 93.2867 57.273C94.2958 57.8712 95.037 58.8336 95.3579 59.9619C95.6787 61.0903 95.5547 62.2987 95.0114 63.3384C94.4681 64.378 93.5468 65.1698 92.4372 65.5506C91.3277 65.9314 90.1144 65.8723 89.0471 65.3855L88.5704 65.1334C85.4446 63.2542 81.4479 62.5209 77.9279 62.3376C76.4776 62.2536 75.0234 62.2598 73.5738 62.3559L72.1254 62.498C70.9298 62.6523 69.7215 62.3293 68.7624 61.599C67.8032 60.8687 67.1704 59.7899 67.001 58.5963C66.8316 57.4028 67.1393 56.1905 67.8574 55.2222C68.5755 54.2539 69.6462 53.6074 70.8375 53.423C73.3477 53.0987 75.8834 53.0174 78.4092 53.1801V53.1846ZM87.6904 40.4155C88.8582 40.4179 89.9811 40.8661 90.8297 41.6684C91.6782 42.4707 92.1886 43.5666 92.2564 44.7325C92.3243 45.8983 91.9445 47.0461 91.1948 47.9414C90.445 48.8368 89.3817 49.4121 88.2221 49.5501L87.6904 49.5821H84.4454C83.2776 49.5797 82.1548 49.1316 81.3062 48.3293C80.4576 47.5269 79.9473 46.431 79.8795 45.2651C79.8116 44.0993 80.1913 42.9515 80.9411 42.0562C81.6909 41.1608 82.7541 40.5855 83.9138 40.4476L84.4454 40.4155H87.6904ZM73.1063 36.8955C73.8954 37.6847 74.3695 38.7347 74.4395 39.8486C74.5095 40.9625 74.1708 42.0636 73.4867 42.9455L73.1063 43.3763L68.2434 48.2392C67.4185 49.0612 66.3118 49.5385 65.1478 49.574C63.9839 49.6096 62.8501 49.2007 61.9767 48.4306C61.1032 47.6604 60.5557 46.5867 60.4453 45.4275C60.3348 44.2682 60.6698 43.1104 61.3821 42.1892L61.7625 41.7584L66.6208 36.9001C67.0465 36.4739 67.552 36.1359 68.1084 35.9052C68.6648 35.6745 69.2612 35.5558 69.8636 35.5558C70.4659 35.5558 71.0623 35.6745 71.6187 35.9052C72.1751 36.1359 72.6806 36.4693 73.1063 36.8955ZM61.2492 12.7596C63.3025 18.9288 62.2025 25.6846 60.9192 30.4055C60.1479 33.3486 59.0886 36.2087 57.7567 38.9442C57.2139 40.0322 56.2612 40.8599 55.1081 41.2454C53.9551 41.6309 52.6961 41.5426 51.6081 40.9999C50.5202 40.4571 49.6924 39.5044 49.3069 38.3513C48.9214 37.1982 49.0098 35.9392 49.5525 34.8513C50.6154 32.6538 51.4597 30.3572 52.0734 27.9946C53.1138 24.1813 53.6363 20.0426 52.8342 16.6509L52.5546 15.6609C52.3549 15.0877 52.271 14.4805 52.3078 13.8747C52.3446 13.2688 52.5014 12.6762 52.7691 12.1314C53.0368 11.5867 53.41 11.1005 53.8671 10.7011C54.3242 10.3017 54.8561 9.99713 55.4319 9.805C56.0077 9.61286 56.6159 9.53702 57.2213 9.58186C57.8266 9.6267 58.417 9.79134 58.9582 10.0662C59.4994 10.3411 59.9806 10.7207 60.3739 11.1831C60.7672 11.6455 61.0647 12.1814 61.2492 12.7596ZM86.0679 23.9338C86.9272 24.7933 87.4099 25.9589 87.4099 27.1742C87.4099 28.3896 86.9272 29.5551 86.0679 30.4146L82.8275 33.6551C82.4047 34.0928 81.899 34.442 81.3398 34.6822C80.7806 34.9224 80.1792 35.0488 79.5706 35.0541C78.962 35.0594 78.3585 34.9434 77.7952 34.713C77.2319 34.4825 76.7202 34.1422 76.2899 33.7119C75.8595 33.2815 75.5192 32.7698 75.2887 32.2065C75.0583 31.6432 74.9423 31.0397 74.9476 30.4311C74.9529 29.8226 75.0793 29.2211 75.3196 28.662C75.5598 28.1028 75.9089 27.597 76.3467 27.1742L79.5871 23.9338C80.4466 23.0746 81.6122 22.5919 82.8275 22.5919C84.0428 22.5919 85.2084 23.0746 86.0679 23.9338Z" fill="#DCA378"/>
</g>
</g>
<defs>
<clipPath id="clip0_59_1266">
<rect width="110" height="110" fill="white"/>
</clipPath>
</defs>
</svg>
